%TF.GenerationSoftware,KiCad,Pcbnew,9.0.2*%
%TF.CreationDate,2025-06-20T14:09:44-04:00*%
%TF.ProjectId,hackpad,6861636b-7061-4642-9e6b-696361645f70,rev?*%
%TF.SameCoordinates,Original*%
%TF.FileFunction,Legend,Top*%
%TF.FilePolarity,Positive*%
%FSLAX46Y46*%
G04 Gerber Fmt 4.6, Leading zero omitted, Abs format (unit mm)*
G04 Created by KiCad (PCBNEW 9.0.2) date 2025-06-20 14:09:44*
%MOMM*%
%LPD*%
G01*
G04 APERTURE LIST*
%ADD10C,0.100000*%
%ADD11C,0.101600*%
%ADD12C,0.150000*%
%ADD13C,0.127000*%
%ADD14C,0.504000*%
%ADD15C,0.120000*%
G04 APERTURE END LIST*
D10*
X174256265Y-86586704D02*
X174732455Y-86586704D01*
X174161027Y-86872419D02*
X174494360Y-85872419D01*
X174494360Y-85872419D02*
X174827693Y-86872419D01*
X175161027Y-86872419D02*
X175161027Y-85872419D01*
X175161027Y-85872419D02*
X175732455Y-86872419D01*
X175732455Y-86872419D02*
X175732455Y-85872419D01*
X176208646Y-86872419D02*
X176208646Y-85872419D01*
X176208646Y-85872419D02*
X176446741Y-85872419D01*
X176446741Y-85872419D02*
X176589598Y-85920038D01*
X176589598Y-85920038D02*
X176684836Y-86015276D01*
X176684836Y-86015276D02*
X176732455Y-86110514D01*
X176732455Y-86110514D02*
X176780074Y-86300990D01*
X176780074Y-86300990D02*
X176780074Y-86443847D01*
X176780074Y-86443847D02*
X176732455Y-86634323D01*
X176732455Y-86634323D02*
X176684836Y-86729561D01*
X176684836Y-86729561D02*
X176589598Y-86824800D01*
X176589598Y-86824800D02*
X176446741Y-86872419D01*
X176446741Y-86872419D02*
X176208646Y-86872419D01*
X177399122Y-86396228D02*
X177399122Y-86872419D01*
X177065789Y-85872419D02*
X177399122Y-86396228D01*
X177399122Y-86396228D02*
X177732455Y-85872419D01*
X178113408Y-85872419D02*
X178018170Y-86062895D01*
X178494360Y-86824800D02*
X178637217Y-86872419D01*
X178637217Y-86872419D02*
X178875312Y-86872419D01*
X178875312Y-86872419D02*
X178970550Y-86824800D01*
X178970550Y-86824800D02*
X179018169Y-86777180D01*
X179018169Y-86777180D02*
X179065788Y-86681942D01*
X179065788Y-86681942D02*
X179065788Y-86586704D01*
X179065788Y-86586704D02*
X179018169Y-86491466D01*
X179018169Y-86491466D02*
X178970550Y-86443847D01*
X178970550Y-86443847D02*
X178875312Y-86396228D01*
X178875312Y-86396228D02*
X178684836Y-86348609D01*
X178684836Y-86348609D02*
X178589598Y-86300990D01*
X178589598Y-86300990D02*
X178541979Y-86253371D01*
X178541979Y-86253371D02*
X178494360Y-86158133D01*
X178494360Y-86158133D02*
X178494360Y-86062895D01*
X178494360Y-86062895D02*
X178541979Y-85967657D01*
X178541979Y-85967657D02*
X178589598Y-85920038D01*
X178589598Y-85920038D02*
X178684836Y-85872419D01*
X178684836Y-85872419D02*
X178922931Y-85872419D01*
X178922931Y-85872419D02*
X179065788Y-85920038D01*
X180256265Y-86872419D02*
X180256265Y-85872419D01*
X180256265Y-86348609D02*
X180827693Y-86348609D01*
X180827693Y-86872419D02*
X180827693Y-85872419D01*
X181256265Y-86586704D02*
X181732455Y-86586704D01*
X181161027Y-86872419D02*
X181494360Y-85872419D01*
X181494360Y-85872419D02*
X181827693Y-86872419D01*
X182732455Y-86777180D02*
X182684836Y-86824800D01*
X182684836Y-86824800D02*
X182541979Y-86872419D01*
X182541979Y-86872419D02*
X182446741Y-86872419D01*
X182446741Y-86872419D02*
X182303884Y-86824800D01*
X182303884Y-86824800D02*
X182208646Y-86729561D01*
X182208646Y-86729561D02*
X182161027Y-86634323D01*
X182161027Y-86634323D02*
X182113408Y-86443847D01*
X182113408Y-86443847D02*
X182113408Y-86300990D01*
X182113408Y-86300990D02*
X182161027Y-86110514D01*
X182161027Y-86110514D02*
X182208646Y-86015276D01*
X182208646Y-86015276D02*
X182303884Y-85920038D01*
X182303884Y-85920038D02*
X182446741Y-85872419D01*
X182446741Y-85872419D02*
X182541979Y-85872419D01*
X182541979Y-85872419D02*
X182684836Y-85920038D01*
X182684836Y-85920038D02*
X182732455Y-85967657D01*
X183161027Y-86872419D02*
X183161027Y-85872419D01*
X183732455Y-86872419D02*
X183303884Y-86300990D01*
X183732455Y-85872419D02*
X183161027Y-86443847D01*
X184161027Y-86872419D02*
X184161027Y-85872419D01*
X184161027Y-85872419D02*
X184541979Y-85872419D01*
X184541979Y-85872419D02*
X184637217Y-85920038D01*
X184637217Y-85920038D02*
X184684836Y-85967657D01*
X184684836Y-85967657D02*
X184732455Y-86062895D01*
X184732455Y-86062895D02*
X184732455Y-86205752D01*
X184732455Y-86205752D02*
X184684836Y-86300990D01*
X184684836Y-86300990D02*
X184637217Y-86348609D01*
X184637217Y-86348609D02*
X184541979Y-86396228D01*
X184541979Y-86396228D02*
X184161027Y-86396228D01*
X185113408Y-86586704D02*
X185589598Y-86586704D01*
X185018170Y-86872419D02*
X185351503Y-85872419D01*
X185351503Y-85872419D02*
X185684836Y-86872419D01*
X186018170Y-86872419D02*
X186018170Y-85872419D01*
X186018170Y-85872419D02*
X186256265Y-85872419D01*
X186256265Y-85872419D02*
X186399122Y-85920038D01*
X186399122Y-85920038D02*
X186494360Y-86015276D01*
X186494360Y-86015276D02*
X186541979Y-86110514D01*
X186541979Y-86110514D02*
X186589598Y-86300990D01*
X186589598Y-86300990D02*
X186589598Y-86443847D01*
X186589598Y-86443847D02*
X186541979Y-86634323D01*
X186541979Y-86634323D02*
X186494360Y-86729561D01*
X186494360Y-86729561D02*
X186399122Y-86824800D01*
X186399122Y-86824800D02*
X186256265Y-86872419D01*
X186256265Y-86872419D02*
X186018170Y-86872419D01*
X187018170Y-86777180D02*
X187065789Y-86824800D01*
X187065789Y-86824800D02*
X187018170Y-86872419D01*
X187018170Y-86872419D02*
X186970551Y-86824800D01*
X186970551Y-86824800D02*
X187018170Y-86777180D01*
X187018170Y-86777180D02*
X187018170Y-86872419D01*
X187018170Y-86491466D02*
X186970551Y-85920038D01*
X186970551Y-85920038D02*
X187018170Y-85872419D01*
X187018170Y-85872419D02*
X187065789Y-85920038D01*
X187065789Y-85920038D02*
X187018170Y-86491466D01*
X187018170Y-86491466D02*
X187018170Y-85872419D01*
X133208646Y-76872419D02*
X133875312Y-77872419D01*
X133875312Y-76872419D02*
X133208646Y-77872419D01*
X134256265Y-77872419D02*
X134256265Y-76872419D01*
X134684836Y-77586704D02*
X135161026Y-77586704D01*
X134589598Y-77872419D02*
X134922931Y-76872419D01*
X134922931Y-76872419D02*
X135256264Y-77872419D01*
X135780074Y-76872419D02*
X135970550Y-76872419D01*
X135970550Y-76872419D02*
X136065788Y-76920038D01*
X136065788Y-76920038D02*
X136161026Y-77015276D01*
X136161026Y-77015276D02*
X136208645Y-77205752D01*
X136208645Y-77205752D02*
X136208645Y-77539085D01*
X136208645Y-77539085D02*
X136161026Y-77729561D01*
X136161026Y-77729561D02*
X136065788Y-77824800D01*
X136065788Y-77824800D02*
X135970550Y-77872419D01*
X135970550Y-77872419D02*
X135780074Y-77872419D01*
X135780074Y-77872419D02*
X135684836Y-77824800D01*
X135684836Y-77824800D02*
X135589598Y-77729561D01*
X135589598Y-77729561D02*
X135541979Y-77539085D01*
X135541979Y-77539085D02*
X135541979Y-77205752D01*
X135541979Y-77205752D02*
X135589598Y-77015276D01*
X135589598Y-77015276D02*
X135684836Y-76920038D01*
X135684836Y-76920038D02*
X135780074Y-76872419D01*
X137399122Y-77872419D02*
X137399122Y-76872419D01*
X137399122Y-77348609D02*
X137970550Y-77348609D01*
X137970550Y-77872419D02*
X137970550Y-76872419D01*
X138446741Y-77348609D02*
X138780074Y-77348609D01*
X138922931Y-77872419D02*
X138446741Y-77872419D01*
X138446741Y-77872419D02*
X138446741Y-76872419D01*
X138446741Y-76872419D02*
X138922931Y-76872419D01*
X139922931Y-77872419D02*
X139589598Y-77396228D01*
X139351503Y-77872419D02*
X139351503Y-76872419D01*
X139351503Y-76872419D02*
X139732455Y-76872419D01*
X139732455Y-76872419D02*
X139827693Y-76920038D01*
X139827693Y-76920038D02*
X139875312Y-76967657D01*
X139875312Y-76967657D02*
X139922931Y-77062895D01*
X139922931Y-77062895D02*
X139922931Y-77205752D01*
X139922931Y-77205752D02*
X139875312Y-77300990D01*
X139875312Y-77300990D02*
X139827693Y-77348609D01*
X139827693Y-77348609D02*
X139732455Y-77396228D01*
X139732455Y-77396228D02*
X139351503Y-77396228D01*
X140351503Y-77348609D02*
X140684836Y-77348609D01*
X140827693Y-77872419D02*
X140351503Y-77872419D01*
X140351503Y-77872419D02*
X140351503Y-76872419D01*
X140351503Y-76872419D02*
X140827693Y-76872419D01*
X141256265Y-77777180D02*
X141303884Y-77824800D01*
X141303884Y-77824800D02*
X141256265Y-77872419D01*
X141256265Y-77872419D02*
X141208646Y-77824800D01*
X141208646Y-77824800D02*
X141256265Y-77777180D01*
X141256265Y-77777180D02*
X141256265Y-77872419D01*
X141256265Y-77491466D02*
X141208646Y-76920038D01*
X141208646Y-76920038D02*
X141256265Y-76872419D01*
X141256265Y-76872419D02*
X141303884Y-76920038D01*
X141303884Y-76920038D02*
X141256265Y-77491466D01*
X141256265Y-77491466D02*
X141256265Y-76872419D01*
D11*
X146916190Y-65353479D02*
X146916190Y-65867526D01*
X146916190Y-65867526D02*
X146946428Y-65928002D01*
X146946428Y-65928002D02*
X146976666Y-65958241D01*
X146976666Y-65958241D02*
X147037142Y-65988479D01*
X147037142Y-65988479D02*
X147158095Y-65988479D01*
X147158095Y-65988479D02*
X147218571Y-65958241D01*
X147218571Y-65958241D02*
X147248809Y-65928002D01*
X147248809Y-65928002D02*
X147279047Y-65867526D01*
X147279047Y-65867526D02*
X147279047Y-65353479D01*
X147914047Y-65988479D02*
X147551190Y-65988479D01*
X147732618Y-65988479D02*
X147732618Y-65353479D01*
X147732618Y-65353479D02*
X147672142Y-65444193D01*
X147672142Y-65444193D02*
X147611666Y-65504669D01*
X147611666Y-65504669D02*
X147551190Y-65534907D01*
D12*
X178016667Y-90143200D02*
X178159524Y-90190819D01*
X178159524Y-90190819D02*
X178397619Y-90190819D01*
X178397619Y-90190819D02*
X178492857Y-90143200D01*
X178492857Y-90143200D02*
X178540476Y-90095580D01*
X178540476Y-90095580D02*
X178588095Y-90000342D01*
X178588095Y-90000342D02*
X178588095Y-89905104D01*
X178588095Y-89905104D02*
X178540476Y-89809866D01*
X178540476Y-89809866D02*
X178492857Y-89762247D01*
X178492857Y-89762247D02*
X178397619Y-89714628D01*
X178397619Y-89714628D02*
X178207143Y-89667009D01*
X178207143Y-89667009D02*
X178111905Y-89619390D01*
X178111905Y-89619390D02*
X178064286Y-89571771D01*
X178064286Y-89571771D02*
X178016667Y-89476533D01*
X178016667Y-89476533D02*
X178016667Y-89381295D01*
X178016667Y-89381295D02*
X178064286Y-89286057D01*
X178064286Y-89286057D02*
X178111905Y-89238438D01*
X178111905Y-89238438D02*
X178207143Y-89190819D01*
X178207143Y-89190819D02*
X178445238Y-89190819D01*
X178445238Y-89190819D02*
X178588095Y-89238438D01*
X178921429Y-89190819D02*
X179159524Y-90190819D01*
X179159524Y-90190819D02*
X179350000Y-89476533D01*
X179350000Y-89476533D02*
X179540476Y-90190819D01*
X179540476Y-90190819D02*
X179778572Y-89190819D01*
X180588095Y-89524152D02*
X180588095Y-90190819D01*
X180350000Y-89143200D02*
X180111905Y-89857485D01*
X180111905Y-89857485D02*
X180730952Y-89857485D01*
X125461905Y-94329819D02*
X125461905Y-93329819D01*
X125461905Y-93329819D02*
X125700000Y-93329819D01*
X125700000Y-93329819D02*
X125842857Y-93377438D01*
X125842857Y-93377438D02*
X125938095Y-93472676D01*
X125938095Y-93472676D02*
X125985714Y-93567914D01*
X125985714Y-93567914D02*
X126033333Y-93758390D01*
X126033333Y-93758390D02*
X126033333Y-93901247D01*
X126033333Y-93901247D02*
X125985714Y-94091723D01*
X125985714Y-94091723D02*
X125938095Y-94186961D01*
X125938095Y-94186961D02*
X125842857Y-94282200D01*
X125842857Y-94282200D02*
X125700000Y-94329819D01*
X125700000Y-94329819D02*
X125461905Y-94329819D01*
X126985714Y-94329819D02*
X126414286Y-94329819D01*
X126700000Y-94329819D02*
X126700000Y-93329819D01*
X126700000Y-93329819D02*
X126604762Y-93472676D01*
X126604762Y-93472676D02*
X126509524Y-93567914D01*
X126509524Y-93567914D02*
X126414286Y-93615533D01*
X123228571Y-96112295D02*
X122771428Y-96112295D01*
X123000000Y-96112295D02*
X123000000Y-95312295D01*
X123000000Y-95312295D02*
X122923809Y-95426580D01*
X122923809Y-95426580D02*
X122847619Y-95502771D01*
X122847619Y-95502771D02*
X122771428Y-95540866D01*
X158966067Y-90145400D02*
X159108924Y-90193019D01*
X159108924Y-90193019D02*
X159347019Y-90193019D01*
X159347019Y-90193019D02*
X159442257Y-90145400D01*
X159442257Y-90145400D02*
X159489876Y-90097780D01*
X159489876Y-90097780D02*
X159537495Y-90002542D01*
X159537495Y-90002542D02*
X159537495Y-89907304D01*
X159537495Y-89907304D02*
X159489876Y-89812066D01*
X159489876Y-89812066D02*
X159442257Y-89764447D01*
X159442257Y-89764447D02*
X159347019Y-89716828D01*
X159347019Y-89716828D02*
X159156543Y-89669209D01*
X159156543Y-89669209D02*
X159061305Y-89621590D01*
X159061305Y-89621590D02*
X159013686Y-89573971D01*
X159013686Y-89573971D02*
X158966067Y-89478733D01*
X158966067Y-89478733D02*
X158966067Y-89383495D01*
X158966067Y-89383495D02*
X159013686Y-89288257D01*
X159013686Y-89288257D02*
X159061305Y-89240638D01*
X159061305Y-89240638D02*
X159156543Y-89193019D01*
X159156543Y-89193019D02*
X159394638Y-89193019D01*
X159394638Y-89193019D02*
X159537495Y-89240638D01*
X159870829Y-89193019D02*
X160108924Y-90193019D01*
X160108924Y-90193019D02*
X160299400Y-89478733D01*
X160299400Y-89478733D02*
X160489876Y-90193019D01*
X160489876Y-90193019D02*
X160727972Y-89193019D01*
X161013686Y-89193019D02*
X161632733Y-89193019D01*
X161632733Y-89193019D02*
X161299400Y-89573971D01*
X161299400Y-89573971D02*
X161442257Y-89573971D01*
X161442257Y-89573971D02*
X161537495Y-89621590D01*
X161537495Y-89621590D02*
X161585114Y-89669209D01*
X161585114Y-89669209D02*
X161632733Y-89764447D01*
X161632733Y-89764447D02*
X161632733Y-90002542D01*
X161632733Y-90002542D02*
X161585114Y-90097780D01*
X161585114Y-90097780D02*
X161537495Y-90145400D01*
X161537495Y-90145400D02*
X161442257Y-90193019D01*
X161442257Y-90193019D02*
X161156543Y-90193019D01*
X161156543Y-90193019D02*
X161061305Y-90145400D01*
X161061305Y-90145400D02*
X161013686Y-90097780D01*
X158956667Y-71093200D02*
X159099524Y-71140819D01*
X159099524Y-71140819D02*
X159337619Y-71140819D01*
X159337619Y-71140819D02*
X159432857Y-71093200D01*
X159432857Y-71093200D02*
X159480476Y-71045580D01*
X159480476Y-71045580D02*
X159528095Y-70950342D01*
X159528095Y-70950342D02*
X159528095Y-70855104D01*
X159528095Y-70855104D02*
X159480476Y-70759866D01*
X159480476Y-70759866D02*
X159432857Y-70712247D01*
X159432857Y-70712247D02*
X159337619Y-70664628D01*
X159337619Y-70664628D02*
X159147143Y-70617009D01*
X159147143Y-70617009D02*
X159051905Y-70569390D01*
X159051905Y-70569390D02*
X159004286Y-70521771D01*
X159004286Y-70521771D02*
X158956667Y-70426533D01*
X158956667Y-70426533D02*
X158956667Y-70331295D01*
X158956667Y-70331295D02*
X159004286Y-70236057D01*
X159004286Y-70236057D02*
X159051905Y-70188438D01*
X159051905Y-70188438D02*
X159147143Y-70140819D01*
X159147143Y-70140819D02*
X159385238Y-70140819D01*
X159385238Y-70140819D02*
X159528095Y-70188438D01*
X159861429Y-70140819D02*
X160099524Y-71140819D01*
X160099524Y-71140819D02*
X160290000Y-70426533D01*
X160290000Y-70426533D02*
X160480476Y-71140819D01*
X160480476Y-71140819D02*
X160718572Y-70140819D01*
X161623333Y-71140819D02*
X161051905Y-71140819D01*
X161337619Y-71140819D02*
X161337619Y-70140819D01*
X161337619Y-70140819D02*
X161242381Y-70283676D01*
X161242381Y-70283676D02*
X161147143Y-70378914D01*
X161147143Y-70378914D02*
X161051905Y-70426533D01*
X38718305Y-116981619D02*
X38718305Y-115981619D01*
X38718305Y-115981619D02*
X38956400Y-115981619D01*
X38956400Y-115981619D02*
X39099257Y-116029238D01*
X39099257Y-116029238D02*
X39194495Y-116124476D01*
X39194495Y-116124476D02*
X39242114Y-116219714D01*
X39242114Y-116219714D02*
X39289733Y-116410190D01*
X39289733Y-116410190D02*
X39289733Y-116553047D01*
X39289733Y-116553047D02*
X39242114Y-116743523D01*
X39242114Y-116743523D02*
X39194495Y-116838761D01*
X39194495Y-116838761D02*
X39099257Y-116934000D01*
X39099257Y-116934000D02*
X38956400Y-116981619D01*
X38956400Y-116981619D02*
X38718305Y-116981619D01*
X39670686Y-116076857D02*
X39718305Y-116029238D01*
X39718305Y-116029238D02*
X39813543Y-115981619D01*
X39813543Y-115981619D02*
X40051638Y-115981619D01*
X40051638Y-115981619D02*
X40146876Y-116029238D01*
X40146876Y-116029238D02*
X40194495Y-116076857D01*
X40194495Y-116076857D02*
X40242114Y-116172095D01*
X40242114Y-116172095D02*
X40242114Y-116267333D01*
X40242114Y-116267333D02*
X40194495Y-116410190D01*
X40194495Y-116410190D02*
X39623067Y-116981619D01*
X39623067Y-116981619D02*
X40242114Y-116981619D01*
X123238571Y-102692295D02*
X122781428Y-102692295D01*
X123010000Y-102692295D02*
X123010000Y-101892295D01*
X123010000Y-101892295D02*
X122933809Y-102006580D01*
X122933809Y-102006580D02*
X122857619Y-102082771D01*
X122857619Y-102082771D02*
X122781428Y-102120866D01*
X139906667Y-90143200D02*
X140049524Y-90190819D01*
X140049524Y-90190819D02*
X140287619Y-90190819D01*
X140287619Y-90190819D02*
X140382857Y-90143200D01*
X140382857Y-90143200D02*
X140430476Y-90095580D01*
X140430476Y-90095580D02*
X140478095Y-90000342D01*
X140478095Y-90000342D02*
X140478095Y-89905104D01*
X140478095Y-89905104D02*
X140430476Y-89809866D01*
X140430476Y-89809866D02*
X140382857Y-89762247D01*
X140382857Y-89762247D02*
X140287619Y-89714628D01*
X140287619Y-89714628D02*
X140097143Y-89667009D01*
X140097143Y-89667009D02*
X140001905Y-89619390D01*
X140001905Y-89619390D02*
X139954286Y-89571771D01*
X139954286Y-89571771D02*
X139906667Y-89476533D01*
X139906667Y-89476533D02*
X139906667Y-89381295D01*
X139906667Y-89381295D02*
X139954286Y-89286057D01*
X139954286Y-89286057D02*
X140001905Y-89238438D01*
X140001905Y-89238438D02*
X140097143Y-89190819D01*
X140097143Y-89190819D02*
X140335238Y-89190819D01*
X140335238Y-89190819D02*
X140478095Y-89238438D01*
X140811429Y-89190819D02*
X141049524Y-90190819D01*
X141049524Y-90190819D02*
X141240000Y-89476533D01*
X141240000Y-89476533D02*
X141430476Y-90190819D01*
X141430476Y-90190819D02*
X141668572Y-89190819D01*
X142001905Y-89286057D02*
X142049524Y-89238438D01*
X142049524Y-89238438D02*
X142144762Y-89190819D01*
X142144762Y-89190819D02*
X142382857Y-89190819D01*
X142382857Y-89190819D02*
X142478095Y-89238438D01*
X142478095Y-89238438D02*
X142525714Y-89286057D01*
X142525714Y-89286057D02*
X142573333Y-89381295D01*
X142573333Y-89381295D02*
X142573333Y-89476533D01*
X142573333Y-89476533D02*
X142525714Y-89619390D01*
X142525714Y-89619390D02*
X141954286Y-90190819D01*
X141954286Y-90190819D02*
X142573333Y-90190819D01*
D13*
%TO.C,U1*%
X128610000Y-84077500D02*
X128610000Y-66932500D01*
X130515000Y-85982500D02*
X144485000Y-85982500D01*
X133005000Y-65027500D02*
X133008728Y-64117228D01*
X133508728Y-63617500D02*
X141504000Y-63617500D01*
X142004000Y-64117500D02*
X142004000Y-65027500D01*
D10*
X144485000Y-65027500D02*
X130515000Y-65027500D01*
D13*
X144485000Y-65027500D02*
X130515000Y-65027500D01*
X146390000Y-84077500D02*
X146390000Y-66932500D01*
X128610000Y-66932500D02*
G75*
G02*
X130515000Y-65027500I1905001J-1D01*
G01*
X130515000Y-85982500D02*
G75*
G02*
X128610000Y-84077500I1J1905001D01*
G01*
X133008728Y-64117228D02*
G75*
G02*
X133508728Y-63617501I500018J-291D01*
G01*
X141504000Y-63617500D02*
G75*
G02*
X142004000Y-64117500I0J-500000D01*
G01*
X144485000Y-65027500D02*
G75*
G02*
X146390000Y-66932500I0J-1905000D01*
G01*
X146390000Y-84077500D02*
G75*
G02*
X144485000Y-85982500I-1905000J0D01*
G01*
D14*
X128802000Y-65268500D02*
G75*
G02*
X128298000Y-65268500I-252000J0D01*
G01*
X128298000Y-65268500D02*
G75*
G02*
X128802000Y-65268500I252000J0D01*
G01*
X129945000Y-66148500D02*
G75*
G02*
X129441000Y-66148500I-252000J0D01*
G01*
X129441000Y-66148500D02*
G75*
G02*
X129945000Y-66148500I252000J0D01*
G01*
D15*
%TO.C,SW4*%
X172365000Y-90625000D02*
X186335000Y-90625000D01*
X172365000Y-104595000D02*
X172365000Y-90625000D01*
X186335000Y-90625000D02*
X186335000Y-104595000D01*
X186335000Y-104595000D02*
X172365000Y-104595000D01*
%TO.C,D1*%
X123400000Y-94625000D02*
X123400000Y-98625000D01*
X123400000Y-94625000D02*
X129000000Y-94625000D01*
X123400000Y-98625000D02*
X128400000Y-98625000D01*
X129000000Y-98025000D02*
X128400000Y-98625000D01*
X129000000Y-98025000D02*
X129000000Y-94625000D01*
%TO.C,SW3*%
X153314400Y-90627200D02*
X167284400Y-90627200D01*
X153314400Y-104597200D02*
X153314400Y-90627200D01*
X167284400Y-90627200D02*
X167284400Y-104597200D01*
X167284400Y-104597200D02*
X153314400Y-104597200D01*
%TO.C,SW1*%
X153305000Y-71575000D02*
X167275000Y-71575000D01*
X153305000Y-85545000D02*
X153305000Y-71575000D01*
X167275000Y-71575000D02*
X167275000Y-85545000D01*
X167275000Y-85545000D02*
X153305000Y-85545000D01*
%TO.C,D2*%
X123410000Y-101205000D02*
X123410000Y-105205000D01*
X123410000Y-101205000D02*
X129010000Y-101205000D01*
X123410000Y-105205000D02*
X128410000Y-105205000D01*
X129010000Y-104605000D02*
X128410000Y-105205000D01*
X129010000Y-104605000D02*
X129010000Y-101205000D01*
%TO.C,SW2*%
X134255000Y-90625000D02*
X148225000Y-90625000D01*
X134255000Y-104595000D02*
X134255000Y-90625000D01*
X148225000Y-90625000D02*
X148225000Y-104595000D01*
X148225000Y-104595000D02*
X134255000Y-104595000D01*
%TD*%
M02*
