%TF.GenerationSoftware,KiCad,Pcbnew,9.0.2*%
%TF.CreationDate,2025-06-20T14:09:44-04:00*%
%TF.ProjectId,hackpad,6861636b-7061-4642-9e6b-696361645f70,rev?*%
%TF.SameCoordinates,Original*%
%TF.FileFunction,Copper,L1,Top*%
%TF.FilePolarity,Positive*%
%FSLAX46Y46*%
G04 Gerber Fmt 4.6, Leading zero omitted, Abs format (unit mm)*
G04 Created by KiCad (PCBNEW 9.0.2) date 2025-06-20 14:09:44*
%MOMM*%
%LPD*%
G01*
G04 APERTURE LIST*
G04 Aperture macros list*
%AMRoundRect*
0 Rectangle with rounded corners*
0 $1 Rounding radius*
0 $2 $3 $4 $5 $6 $7 $8 $9 X,Y pos of 4 corners*
0 Add a 4 corners polygon primitive as box body*
4,1,4,$2,$3,$4,$5,$6,$7,$8,$9,$2,$3,0*
0 Add four circle primitives for the rounded corners*
1,1,$1+$1,$2,$3*
1,1,$1+$1,$4,$5*
1,1,$1+$1,$6,$7*
1,1,$1+$1,$8,$9*
0 Add four rect primitives between the rounded corners*
20,1,$1+$1,$2,$3,$4,$5,0*
20,1,$1+$1,$4,$5,$6,$7,0*
20,1,$1+$1,$6,$7,$8,$9,0*
20,1,$1+$1,$8,$9,$2,$3,0*%
G04 Aperture macros list end*
%TA.AperFunction,SMDPad,CuDef*%
%ADD10RoundRect,0.152400X1.063600X0.609600X-1.063600X0.609600X-1.063600X-0.609600X1.063600X-0.609600X0*%
%TD*%
%TA.AperFunction,ComponentPad*%
%ADD11C,1.524000*%
%TD*%
%TA.AperFunction,SMDPad,CuDef*%
%ADD12RoundRect,0.152400X-1.063600X-0.609600X1.063600X-0.609600X1.063600X0.609600X-1.063600X0.609600X0*%
%TD*%
%TA.AperFunction,ComponentPad*%
%ADD13C,2.200000*%
%TD*%
%TA.AperFunction,SMDPad,CuDef*%
%ADD14R,1.600000X0.850000*%
%TD*%
%TA.AperFunction,Conductor*%
%ADD15C,0.200000*%
%TD*%
G04 APERTURE END LIST*
D10*
%TO.P,U1,1,GPIO26/ADC0/A0*%
%TO.N,unconnected-(U1-GPIO26{slash}ADC0{slash}A0-Pad1)*%
X129045000Y-67948500D03*
D11*
X129880000Y-67948500D03*
D10*
%TO.P,U1,2,GPIO27/ADC1/A1*%
%TO.N,unconnected-(U1-GPIO27{slash}ADC1{slash}A1-Pad2)*%
X129045000Y-70488500D03*
D11*
X129880000Y-70488500D03*
D10*
%TO.P,U1,3,GPIO28/ADC2/A2*%
%TO.N,unconnected-(U1-GPIO28{slash}ADC2{slash}A2-Pad3)*%
X129045000Y-73028500D03*
D11*
X129880000Y-73028500D03*
D10*
%TO.P,U1,4,GPIO29/ADC3/A3*%
%TO.N,unconnected-(U1-GPIO29{slash}ADC3{slash}A3-Pad4)*%
X129045000Y-75568500D03*
D11*
X129880000Y-75568500D03*
D10*
%TO.P,U1,5,GPIO6/SDA*%
%TO.N,Net-(D1-DIN)*%
X129045000Y-78108500D03*
D11*
X129880000Y-78108500D03*
D10*
%TO.P,U1,6,GPIO7/SCL*%
%TO.N,unconnected-(U1-GPIO7{slash}SCL-Pad6)*%
X129045000Y-80648500D03*
D11*
X129880000Y-80648500D03*
D10*
%TO.P,U1,7,GPIO0/TX*%
%TO.N,unconnected-(U1-GPIO0{slash}TX-Pad7)*%
X129045000Y-83188500D03*
D11*
X129880000Y-83188500D03*
%TO.P,U1,8,GPIO1/RX*%
%TO.N,Net-(U1-GPIO1{slash}RX)*%
X145120000Y-83188500D03*
D12*
X145955000Y-83188500D03*
D11*
%TO.P,U1,9,GPIO2/SCK*%
%TO.N,Net-(U1-GPIO2{slash}SCK)*%
X145120000Y-80648500D03*
D12*
X145955000Y-80648500D03*
D11*
%TO.P,U1,10,GPIO4/MISO*%
%TO.N,Net-(U1-GPIO4{slash}MISO)*%
X145120000Y-78108500D03*
D12*
X145955000Y-78108500D03*
D11*
%TO.P,U1,11,GPIO3/MOSI*%
%TO.N,Net-(U1-GPIO3{slash}MOSI)*%
X145120000Y-75568500D03*
D12*
X145955000Y-75568500D03*
D11*
%TO.P,U1,12,3V3*%
%TO.N,unconnected-(U1-3V3-Pad12)*%
X145120000Y-73028500D03*
D12*
X145955000Y-73028500D03*
D11*
%TO.P,U1,13,GND*%
%TO.N,GND*%
X145120000Y-70488500D03*
D12*
X145955000Y-70488500D03*
D11*
%TO.P,U1,14,VBUS*%
%TO.N,+5V*%
X145120000Y-67948500D03*
D12*
X145955000Y-67948500D03*
%TD*%
D13*
%TO.P,SW4,1,1*%
%TO.N,GND*%
X181890000Y-92530000D03*
%TO.P,SW4,2,2*%
%TO.N,Net-(U1-GPIO3{slash}MOSI)*%
X175540000Y-95070000D03*
%TD*%
D14*
%TO.P,D1,1,DOUT*%
%TO.N,Net-(D1-DOUT)*%
X124450000Y-95750000D03*
%TO.P,D1,2,VSS*%
%TO.N,GND*%
X124450000Y-97500000D03*
%TO.P,D1,3,DIN*%
%TO.N,Net-(D1-DIN)*%
X127950000Y-97500000D03*
%TO.P,D1,4,VDD*%
%TO.N,+5V*%
X127950000Y-95750000D03*
%TD*%
D13*
%TO.P,SW3,1,1*%
%TO.N,GND*%
X162839400Y-92532200D03*
%TO.P,SW3,2,2*%
%TO.N,Net-(U1-GPIO4{slash}MISO)*%
X156489400Y-95072200D03*
%TD*%
%TO.P,SW1,1,1*%
%TO.N,GND*%
X162830000Y-73480000D03*
%TO.P,SW1,2,2*%
%TO.N,Net-(U1-GPIO1{slash}RX)*%
X156480000Y-76020000D03*
%TD*%
D14*
%TO.P,D2,1,DOUT*%
%TO.N,unconnected-(D2-DOUT-Pad1)*%
X124460000Y-102330000D03*
%TO.P,D2,2,VSS*%
%TO.N,GND*%
X124460000Y-104080000D03*
%TO.P,D2,3,DIN*%
%TO.N,Net-(D1-DOUT)*%
X127960000Y-104080000D03*
%TO.P,D2,4,VDD*%
%TO.N,+5V*%
X127960000Y-102330000D03*
%TD*%
D13*
%TO.P,SW2,1,1*%
%TO.N,GND*%
X143780000Y-92530000D03*
%TO.P,SW2,2,2*%
%TO.N,Net-(U1-GPIO2{slash}SCK)*%
X137430000Y-95070000D03*
%TD*%
D15*
%TO.N,Net-(D1-DIN)*%
X130943000Y-79171500D02*
X129880000Y-78108500D01*
X127950000Y-97500000D02*
X130943000Y-94507000D01*
X130943000Y-94507000D02*
X130943000Y-79171500D01*
%TO.N,Net-(D1-DOUT)*%
X123359000Y-104806000D02*
X122958000Y-104405000D01*
X127234000Y-104806000D02*
X123359000Y-104806000D01*
X122958000Y-97242000D02*
X124450000Y-95750000D01*
X127960000Y-104080000D02*
X127234000Y-104806000D01*
X122958000Y-104405000D02*
X122958000Y-97242000D01*
%TO.N,+5V*%
X127500000Y-90000000D02*
X127500000Y-67174874D01*
X127500000Y-67174874D02*
X127789374Y-66885500D01*
X122500000Y-95000000D02*
X127200000Y-95000000D01*
X122500000Y-104514100D02*
X122500000Y-95000000D01*
X127789374Y-66885500D02*
X144057000Y-66885500D01*
X129061000Y-103431000D02*
X129061000Y-104806000D01*
X127200000Y-95000000D02*
X127200000Y-90300000D01*
X127950000Y-95750000D02*
X127200000Y-95000000D01*
X129061000Y-104806000D02*
X128660000Y-105207000D01*
X127960000Y-102330000D02*
X129061000Y-103431000D01*
X127200000Y-90300000D02*
X127500000Y-90000000D01*
X123192900Y-105207000D02*
X122500000Y-104514100D01*
X144057000Y-66885500D02*
X145120000Y-67948500D01*
X128660000Y-105207000D02*
X123192900Y-105207000D01*
%TO.N,GND*%
X162839400Y-92532200D02*
X162839400Y-73489400D01*
X162839400Y-73489400D02*
X162830000Y-73480000D01*
X136714184Y-98811000D02*
X142995184Y-92530000D01*
X123359000Y-98591000D02*
X124450000Y-97500000D01*
X142995184Y-92530000D02*
X143780000Y-92530000D01*
X159838500Y-70488500D02*
X145120000Y-70488500D01*
X143780000Y-92530000D02*
X162837200Y-92530000D01*
X162841600Y-92530000D02*
X162839400Y-92532200D01*
X125761000Y-98811000D02*
X136714184Y-98811000D01*
X162830000Y-73480000D02*
X159838500Y-70488500D01*
X124450000Y-97500000D02*
X125761000Y-98811000D01*
X181890000Y-92530000D02*
X162841600Y-92530000D01*
X123359000Y-102979000D02*
X123359000Y-98591000D01*
X162837200Y-92530000D02*
X162839400Y-92532200D01*
X124460000Y-104080000D02*
X123359000Y-102979000D01*
%TO.N,unconnected-(D2-DOUT-Pad1)*%
X124830000Y-102330000D02*
X125000000Y-102500000D01*
%TO.N,Net-(U1-GPIO1{slash}RX)*%
X146811500Y-83188500D02*
X145120000Y-83188500D01*
X156480000Y-76020000D02*
X153980000Y-76020000D01*
X153980000Y-76020000D02*
X146811500Y-83188500D01*
%TO.N,Net-(U1-GPIO2{slash}SCK)*%
X142500000Y-83268500D02*
X145120000Y-80648500D01*
X142500000Y-90000000D02*
X142500000Y-83268500D01*
X137430000Y-95070000D02*
X142500000Y-90000000D01*
%TD*%
M02*
